# xmcd CD database file
#
# Track frame offsets:
#	150
#	14786
#	29990
#	45343
#	59867
#	76144
#	91164
#	104974
#	115040
#	129786
#	141234
#	154399
#	169061
#	180562
#	193451
#	208195
#	222742
#	234446
#	243466
#	257157
#	269138
#	282696
#	297292
#	310025
#	323421
#
# Disc length: 4485 seconds
#
# Revision: 0
# Processed by: cddbd v1.5.2PL0 Copyright (c) Steve Scherf et al.
# Submitted via: CDex 1.51
#
DISCID=91118319
DTITLE=Glenn Miller - The Legacy Of Glenn Miller 2
DYEAR=1900
DGENRE=Jazz
TTITLE0=I've got a gal in Kalamazoo
TTITLE1=Chattanooga Choo Choo
TTITLE2=Tuxedo Junction
TTITLE3=MY Blue Heaven
TTITLE4=A Nightingale Sang in Berkeley Square
TTITLE5=Perfidia
TTITLE6=At Last
TTITLE7=Danny Boy
TTITLE8=Moonlight Cocktail
TTITLE9=The Woodpecker Song
TTITLE10=Blue Orchids
TTITLE11=MY Paryer
TTITLE12=Ding-Dong The Witch Is Dead
TTITLE13=Crosstown
TTITLE14=Indian Summer
TTITLE15=The Nearness Of You
TTITLE16=Our Love Affair
TTITLE17=Make Believe
TTITLE18=Long Tall Mama
TTITLE19=Measure For Measure
TTITLE20=Blues In The Night
TTITLE21=Yester Thoughts
TTITLE22=Wishing
TTITLE23=Here we go again
TTITLE24=The Man With The Mandolin
EXTD=
EXTT0=
EXTT1=
EXTT2=
EXTT3=
EXTT4=
EXTT5=
EXTT6=
EXTT7=
EXTT8=
EXTT9=
EXTT10=
EXTT11=
EXTT12=
EXTT13=
EXTT14=
EXTT15=
EXTT16=
EXTT17=
EXTT18=
EXTT19=
EXTT20=
EXTT21=
EXTT22=
EXTT23=
EXTT24=
PLAYORDER=
